<svg width="256" height="256" viewBox="0 0 256 256" fill="none" xmlns="http://www.w3.org/2000/svg">
  <rect width="256" height="256" rx="64" fill="#0F172A"/>
  <rect x="14" y="14" width="228" height="228" rx="50" stroke="#FFFFFF" stroke-opacity="0.05"/>
  <circle cx="196" cy="60" r="18" fill="#6366F1" fill-opacity="0.2"/>
  <path d="M128 58C95.2 58 68 81.4 61.9 112.4C60.6 119.1 66.1 125 72.9 125H88.7C94 125 98.6 121.2 99.8 116C103.1 101.8 114.9 92 128 92C141.1 92 152.9 101.8 156.2 116C157.4 121.2 162 125 167.3 125H183.1C189.9 125 195.4 119.1 194.1 112.4C188 81.4 160.8 58 128 58Z" fill="#6366F1"/>
  <path d="M72 130C72 120.1 80.1 112 90 112H116C124.8 112 132 119.2 132 128V180C132 184.4 128.4 188 124 188C121.9 188 119.9 187.2 118.4 185.7L106.3 173.6C104.1 171.4 101.1 170.2 98 170.2H90C80.1 170.2 72 162.1 72 152.2V130Z" fill="#E5E7EB"/>
  <path d="M184 130C184 120.1 175.9 112 166 112H140C131.2 112 124 119.2 124 128V180C124 184.4 127.6 188 132 188C134.1 188 136.1 187.2 137.6 185.7L149.7 173.6C151.9 171.4 154.9 170.2 158 170.2H166C175.9 170.2 184 162.1 184 152.2V130Z" fill="#CBD5E1"/>
  <path d="M128 118V172" stroke="#0F172A" stroke-width="8" stroke-linecap="round"/>
  <path d="M192.6 76.5L196.9 85.2L206.5 86.6L199.5 93.4L201.2 103L192.6 98.5L184 103L185.7 93.4L178.7 86.6L188.3 85.2L192.6 76.5Z" fill="#22C55E"/>
</svg>
